<svg xmlns="http://www.w3.org/2000/svg" width="256" height="8">
  <line x1="0" y1="0" x2="0" y2="8" style="stroke: #000"></line>
  <line x1="1" y1="0" x2="1" y2="8" style="stroke: #010101"></line>
  <line x1="2" y1="0" x2="2" y2="8" style="stroke: #020202"></line>
  <line x1="3" y1="0" x2="3" y2="8" style="stroke: #030303"></line>
  <line x1="4" y1="0" x2="4" y2="8" style="stroke: #040404"></line>
  <line x1="5" y1="0" x2="5" y2="8" style="stroke: #050505"></line>
  <line x1="6" y1="0" x2="6" y2="8" style="stroke: #060606"></line>
  <line x1="7" y1="0" x2="7" y2="8" style="stroke: #070707"></line>
  <line x1="8" y1="0" x2="8" y2="8" style="stroke: #080808"></line>
  <line x1="9" y1="0" x2="9" y2="8" style="stroke: #090909"></line>
  <line x1="10" y1="0" x2="10" y2="8" style="stroke: #0a0a0a"></line>
  <line x1="11" y1="0" x2="11" y2="8" style="stroke: #0b0b0b"></line>
  <line x1="12" y1="0" x2="12" y2="8" style="stroke: #0c0c0c"></line>
  <line x1="13" y1="0" x2="13" y2="8" style="stroke: #0d0d0d"></line>
  <line x1="14" y1="0" x2="14" y2="8" style="stroke: #0e0e0e"></line>
  <line x1="15" y1="0" x2="15" y2="8" style="stroke: #0f0f0f"></line>
  <line x1="16" y1="0" x2="16" y2="8" style="stroke: #101010"></line>
  <line x1="17" y1="0" x2="17" y2="8" style="stroke: #111"></line>
  <line x1="18" y1="0" x2="18" y2="8" style="stroke: #121212"></line>
  <line x1="19" y1="0" x2="19" y2="8" style="stroke: #131313"></line>
  <line x1="20" y1="0" x2="20" y2="8" style="stroke: #141414"></line>
  <line x1="21" y1="0" x2="21" y2="8" style="stroke: #151515"></line>
  <line x1="22" y1="0" x2="22" y2="8" style="stroke: #161616"></line>
  <line x1="23" y1="0" x2="23" y2="8" style="stroke: #171717"></line>
  <line x1="24" y1="0" x2="24" y2="8" style="stroke: #181818"></line>
  <line x1="25" y1="0" x2="25" y2="8" style="stroke: #191919"></line>
  <line x1="26" y1="0" x2="26" y2="8" style="stroke: #1a1a1a"></line>
  <line x1="27" y1="0" x2="27" y2="8" style="stroke: #1b1b1b"></line>
  <line x1="28" y1="0" x2="28" y2="8" style="stroke: #1c1c1c"></line>
  <line x1="29" y1="0" x2="29" y2="8" style="stroke: #1d1d1d"></line>
  <line x1="30" y1="0" x2="30" y2="8" style="stroke: #1e1e1e"></line>
  <line x1="31" y1="0" x2="31" y2="8" style="stroke: #1f1f1f"></line>
  <line x1="32" y1="0" x2="32" y2="8" style="stroke: #202020"></line>
  <line x1="33" y1="0" x2="33" y2="8" style="stroke: #212121"></line>
  <line x1="34" y1="0" x2="34" y2="8" style="stroke: #222"></line>
  <line x1="35" y1="0" x2="35" y2="8" style="stroke: #232323"></line>
  <line x1="36" y1="0" x2="36" y2="8" style="stroke: #242424"></line>
  <line x1="37" y1="0" x2="37" y2="8" style="stroke: #252525"></line>
  <line x1="38" y1="0" x2="38" y2="8" style="stroke: #262626"></line>
  <line x1="39" y1="0" x2="39" y2="8" style="stroke: #272727"></line>
  <line x1="40" y1="0" x2="40" y2="8" style="stroke: #282828"></line>
  <line x1="41" y1="0" x2="41" y2="8" style="stroke: #292929"></line>
  <line x1="42" y1="0" x2="42" y2="8" style="stroke: #2a2a2a"></line>
  <line x1="43" y1="0" x2="43" y2="8" style="stroke: #2b2b2b"></line>
  <line x1="44" y1="0" x2="44" y2="8" style="stroke: #2c2c2c"></line>
  <line x1="45" y1="0" x2="45" y2="8" style="stroke: #2d2d2d"></line>
  <line x1="46" y1="0" x2="46" y2="8" style="stroke: #2e2e2e"></line>
  <line x1="47" y1="0" x2="47" y2="8" style="stroke: #2f2f2f"></line>
  <line x1="48" y1="0" x2="48" y2="8" style="stroke: #303030"></line>
  <line x1="49" y1="0" x2="49" y2="8" style="stroke: #313131"></line>
  <line x1="50" y1="0" x2="50" y2="8" style="stroke: #323232"></line>
  <line x1="51" y1="0" x2="51" y2="8" style="stroke: #333"></line>
  <line x1="52" y1="0" x2="52" y2="8" style="stroke: #343434"></line>
  <line x1="53" y1="0" x2="53" y2="8" style="stroke: #353535"></line>
  <line x1="54" y1="0" x2="54" y2="8" style="stroke: #363636"></line>
  <line x1="55" y1="0" x2="55" y2="8" style="stroke: #373737"></line>
  <line x1="56" y1="0" x2="56" y2="8" style="stroke: #383838"></line>
  <line x1="57" y1="0" x2="57" y2="8" style="stroke: #393939"></line>
  <line x1="58" y1="0" x2="58" y2="8" style="stroke: #3a3a3a"></line>
  <line x1="59" y1="0" x2="59" y2="8" style="stroke: #3b3b3b"></line>
  <line x1="60" y1="0" x2="60" y2="8" style="stroke: #3c3c3c"></line>
  <line x1="61" y1="0" x2="61" y2="8" style="stroke: #3d3d3d"></line>
  <line x1="62" y1="0" x2="62" y2="8" style="stroke: #3e3e3e"></line>
  <line x1="63" y1="0" x2="63" y2="8" style="stroke: #3f3f3f"></line>
  <line x1="64" y1="0" x2="64" y2="8" style="stroke: #404040"></line>
  <line x1="65" y1="0" x2="65" y2="8" style="stroke: #414141"></line>
  <line x1="66" y1="0" x2="66" y2="8" style="stroke: #424242"></line>
  <line x1="67" y1="0" x2="67" y2="8" style="stroke: #434343"></line>
  <line x1="68" y1="0" x2="68" y2="8" style="stroke: #444"></line>
  <line x1="69" y1="0" x2="69" y2="8" style="stroke: #454545"></line>
  <line x1="70" y1="0" x2="70" y2="8" style="stroke: #464646"></line>
  <line x1="71" y1="0" x2="71" y2="8" style="stroke: #474747"></line>
  <line x1="72" y1="0" x2="72" y2="8" style="stroke: #484848"></line>
  <line x1="73" y1="0" x2="73" y2="8" style="stroke: #494949"></line>
  <line x1="74" y1="0" x2="74" y2="8" style="stroke: #4a4a4a"></line>
  <line x1="75" y1="0" x2="75" y2="8" style="stroke: #4b4b4b"></line>
  <line x1="76" y1="0" x2="76" y2="8" style="stroke: #4c4c4c"></line>
  <line x1="77" y1="0" x2="77" y2="8" style="stroke: #4d4d4d"></line>
  <line x1="78" y1="0" x2="78" y2="8" style="stroke: #4e4e4e"></line>
  <line x1="79" y1="0" x2="79" y2="8" style="stroke: #4f4f4f"></line>
  <line x1="80" y1="0" x2="80" y2="8" style="stroke: #505050"></line>
  <line x1="81" y1="0" x2="81" y2="8" style="stroke: #515151"></line>
  <line x1="82" y1="0" x2="82" y2="8" style="stroke: #525252"></line>
  <line x1="83" y1="0" x2="83" y2="8" style="stroke: #535353"></line>
  <line x1="84" y1="0" x2="84" y2="8" style="stroke: #545454"></line>
  <line x1="85" y1="0" x2="85" y2="8" style="stroke: #555"></line>
  <line x1="86" y1="0" x2="86" y2="8" style="stroke: #565656"></line>
  <line x1="87" y1="0" x2="87" y2="8" style="stroke: #575757"></line>
  <line x1="88" y1="0" x2="88" y2="8" style="stroke: #585858"></line>
  <line x1="89" y1="0" x2="89" y2="8" style="stroke: #595959"></line>
  <line x1="90" y1="0" x2="90" y2="8" style="stroke: #5a5a5a"></line>
  <line x1="91" y1="0" x2="91" y2="8" style="stroke: #5b5b5b"></line>
  <line x1="92" y1="0" x2="92" y2="8" style="stroke: #5c5c5c"></line>
  <line x1="93" y1="0" x2="93" y2="8" style="stroke: #5d5d5d"></line>
  <line x1="94" y1="0" x2="94" y2="8" style="stroke: #5e5e5e"></line>
  <line x1="95" y1="0" x2="95" y2="8" style="stroke: #5f5f5f"></line>
  <line x1="96" y1="0" x2="96" y2="8" style="stroke: #606060"></line>
  <line x1="97" y1="0" x2="97" y2="8" style="stroke: #616161"></line>
  <line x1="98" y1="0" x2="98" y2="8" style="stroke: #626262"></line>
  <line x1="99" y1="0" x2="99" y2="8" style="stroke: #636363"></line>
  <line x1="100" y1="0" x2="100" y2="8" style="stroke: #646464"></line>
  <line x1="101" y1="0" x2="101" y2="8" style="stroke: #656565"></line>
  <line x1="102" y1="0" x2="102" y2="8" style="stroke: #666"></line>
  <line x1="103" y1="0" x2="103" y2="8" style="stroke: #676767"></line>
  <line x1="104" y1="0" x2="104" y2="8" style="stroke: #686868"></line>
  <line x1="105" y1="0" x2="105" y2="8" style="stroke: #696969"></line>
  <line x1="106" y1="0" x2="106" y2="8" style="stroke: #6a6a6a"></line>
  <line x1="107" y1="0" x2="107" y2="8" style="stroke: #6b6b6b"></line>
  <line x1="108" y1="0" x2="108" y2="8" style="stroke: #6c6c6c"></line>
  <line x1="109" y1="0" x2="109" y2="8" style="stroke: #6d6d6d"></line>
  <line x1="110" y1="0" x2="110" y2="8" style="stroke: #6e6e6e"></line>
  <line x1="111" y1="0" x2="111" y2="8" style="stroke: #6f6f6f"></line>
  <line x1="112" y1="0" x2="112" y2="8" style="stroke: #707070"></line>
  <line x1="113" y1="0" x2="113" y2="8" style="stroke: #717171"></line>
  <line x1="114" y1="0" x2="114" y2="8" style="stroke: #727272"></line>
  <line x1="115" y1="0" x2="115" y2="8" style="stroke: #737373"></line>
  <line x1="116" y1="0" x2="116" y2="8" style="stroke: #747474"></line>
  <line x1="117" y1="0" x2="117" y2="8" style="stroke: #757575"></line>
  <line x1="118" y1="0" x2="118" y2="8" style="stroke: #767676"></line>
  <line x1="119" y1="0" x2="119" y2="8" style="stroke: #777"></line>
  <line x1="120" y1="0" x2="120" y2="8" style="stroke: #787878"></line>
  <line x1="121" y1="0" x2="121" y2="8" style="stroke: #797979"></line>
  <line x1="122" y1="0" x2="122" y2="8" style="stroke: #7a7a7a"></line>
  <line x1="123" y1="0" x2="123" y2="8" style="stroke: #7b7b7b"></line>
  <line x1="124" y1="0" x2="124" y2="8" style="stroke: #7c7c7c"></line>
  <line x1="125" y1="0" x2="125" y2="8" style="stroke: #7d7d7d"></line>
  <line x1="126" y1="0" x2="126" y2="8" style="stroke: #7e7e7e"></line>
  <line x1="127" y1="0" x2="127" y2="8" style="stroke: #7f7f7f"></line>
  <line x1="128" y1="0" x2="128" y2="8" style="stroke: #808080"></line>
  <line x1="129" y1="0" x2="129" y2="8" style="stroke: #818181"></line>
  <line x1="130" y1="0" x2="130" y2="8" style="stroke: #828282"></line>
  <line x1="131" y1="0" x2="131" y2="8" style="stroke: #838383"></line>
  <line x1="132" y1="0" x2="132" y2="8" style="stroke: #848484"></line>
  <line x1="133" y1="0" x2="133" y2="8" style="stroke: #858585"></line>
  <line x1="134" y1="0" x2="134" y2="8" style="stroke: #868686"></line>
  <line x1="135" y1="0" x2="135" y2="8" style="stroke: #878787"></line>
  <line x1="136" y1="0" x2="136" y2="8" style="stroke: #888"></line>
  <line x1="137" y1="0" x2="137" y2="8" style="stroke: #898989"></line>
  <line x1="138" y1="0" x2="138" y2="8" style="stroke: #8a8a8a"></line>
  <line x1="139" y1="0" x2="139" y2="8" style="stroke: #8b8b8b"></line>
  <line x1="140" y1="0" x2="140" y2="8" style="stroke: #8c8c8c"></line>
  <line x1="141" y1="0" x2="141" y2="8" style="stroke: #8d8d8d"></line>
  <line x1="142" y1="0" x2="142" y2="8" style="stroke: #8e8e8e"></line>
  <line x1="143" y1="0" x2="143" y2="8" style="stroke: #8f8f8f"></line>
  <line x1="144" y1="0" x2="144" y2="8" style="stroke: #909090"></line>
  <line x1="145" y1="0" x2="145" y2="8" style="stroke: #919191"></line>
  <line x1="146" y1="0" x2="146" y2="8" style="stroke: #929292"></line>
  <line x1="147" y1="0" x2="147" y2="8" style="stroke: #939393"></line>
  <line x1="148" y1="0" x2="148" y2="8" style="stroke: #949494"></line>
  <line x1="149" y1="0" x2="149" y2="8" style="stroke: #959595"></line>
  <line x1="150" y1="0" x2="150" y2="8" style="stroke: #969696"></line>
  <line x1="151" y1="0" x2="151" y2="8" style="stroke: #979797"></line>
  <line x1="152" y1="0" x2="152" y2="8" style="stroke: #989898"></line>
  <line x1="153" y1="0" x2="153" y2="8" style="stroke: #999"></line>
  <line x1="154" y1="0" x2="154" y2="8" style="stroke: #9a9a9a"></line>
  <line x1="155" y1="0" x2="155" y2="8" style="stroke: #9b9b9b"></line>
  <line x1="156" y1="0" x2="156" y2="8" style="stroke: #9c9c9c"></line>
  <line x1="157" y1="0" x2="157" y2="8" style="stroke: #9d9d9d"></line>
  <line x1="158" y1="0" x2="158" y2="8" style="stroke: #9e9e9e"></line>
  <line x1="159" y1="0" x2="159" y2="8" style="stroke: #9f9f9f"></line>
  <line x1="160" y1="0" x2="160" y2="8" style="stroke: #a0a0a0"></line>
  <line x1="161" y1="0" x2="161" y2="8" style="stroke: #a1a1a1"></line>
  <line x1="162" y1="0" x2="162" y2="8" style="stroke: #a2a2a2"></line>
  <line x1="163" y1="0" x2="163" y2="8" style="stroke: #a3a3a3"></line>
  <line x1="164" y1="0" x2="164" y2="8" style="stroke: #a4a4a4"></line>
  <line x1="165" y1="0" x2="165" y2="8" style="stroke: #a5a5a5"></line>
  <line x1="166" y1="0" x2="166" y2="8" style="stroke: #a6a6a6"></line>
  <line x1="167" y1="0" x2="167" y2="8" style="stroke: #a7a7a7"></line>
  <line x1="168" y1="0" x2="168" y2="8" style="stroke: #a8a8a8"></line>
  <line x1="169" y1="0" x2="169" y2="8" style="stroke: #a9a9a9"></line>
  <line x1="170" y1="0" x2="170" y2="8" style="stroke: #aaa"></line>
  <line x1="171" y1="0" x2="171" y2="8" style="stroke: #ababab"></line>
  <line x1="172" y1="0" x2="172" y2="8" style="stroke: #acacac"></line>
  <line x1="173" y1="0" x2="173" y2="8" style="stroke: #adadad"></line>
  <line x1="174" y1="0" x2="174" y2="8" style="stroke: #aeaeae"></line>
  <line x1="175" y1="0" x2="175" y2="8" style="stroke: #afafaf"></line>
  <line x1="176" y1="0" x2="176" y2="8" style="stroke: #b0b0b0"></line>
  <line x1="177" y1="0" x2="177" y2="8" style="stroke: #b1b1b1"></line>
  <line x1="178" y1="0" x2="178" y2="8" style="stroke: #b2b2b2"></line>
  <line x1="179" y1="0" x2="179" y2="8" style="stroke: #b3b3b3"></line>
  <line x1="180" y1="0" x2="180" y2="8" style="stroke: #b4b4b4"></line>
  <line x1="181" y1="0" x2="181" y2="8" style="stroke: #b5b5b5"></line>
  <line x1="182" y1="0" x2="182" y2="8" style="stroke: #b6b6b6"></line>
  <line x1="183" y1="0" x2="183" y2="8" style="stroke: #b7b7b7"></line>
  <line x1="184" y1="0" x2="184" y2="8" style="stroke: #b8b8b8"></line>
  <line x1="185" y1="0" x2="185" y2="8" style="stroke: #b9b9b9"></line>
  <line x1="186" y1="0" x2="186" y2="8" style="stroke: #bababa"></line>
  <line x1="187" y1="0" x2="187" y2="8" style="stroke: #bbb"></line>
  <line x1="188" y1="0" x2="188" y2="8" style="stroke: #bcbcbc"></line>
  <line x1="189" y1="0" x2="189" y2="8" style="stroke: #bdbdbd"></line>
  <line x1="190" y1="0" x2="190" y2="8" style="stroke: #bebebe"></line>
  <line x1="191" y1="0" x2="191" y2="8" style="stroke: #bfbfbf"></line>
  <line x1="192" y1="0" x2="192" y2="8" style="stroke: #c0c0c0"></line>
  <line x1="193" y1="0" x2="193" y2="8" style="stroke: #c1c1c1"></line>
  <line x1="194" y1="0" x2="194" y2="8" style="stroke: #c2c2c2"></line>
  <line x1="195" y1="0" x2="195" y2="8" style="stroke: #c3c3c3"></line>
  <line x1="196" y1="0" x2="196" y2="8" style="stroke: #c4c4c4"></line>
  <line x1="197" y1="0" x2="197" y2="8" style="stroke: #c5c5c5"></line>
  <line x1="198" y1="0" x2="198" y2="8" style="stroke: #c6c6c6"></line>
  <line x1="199" y1="0" x2="199" y2="8" style="stroke: #c7c7c7"></line>
  <line x1="200" y1="0" x2="200" y2="8" style="stroke: #c8c8c8"></line>
  <line x1="201" y1="0" x2="201" y2="8" style="stroke: #c9c9c9"></line>
  <line x1="202" y1="0" x2="202" y2="8" style="stroke: #cacaca"></line>
  <line x1="203" y1="0" x2="203" y2="8" style="stroke: #cbcbcb"></line>
  <line x1="204" y1="0" x2="204" y2="8" style="stroke: #ccc"></line>
  <line x1="205" y1="0" x2="205" y2="8" style="stroke: #cdcdcd"></line>
  <line x1="206" y1="0" x2="206" y2="8" style="stroke: #cecece"></line>
  <line x1="207" y1="0" x2="207" y2="8" style="stroke: #cfcfcf"></line>
  <line x1="208" y1="0" x2="208" y2="8" style="stroke: #d0d0d0"></line>
  <line x1="209" y1="0" x2="209" y2="8" style="stroke: #d1d1d1"></line>
  <line x1="210" y1="0" x2="210" y2="8" style="stroke: #d2d2d2"></line>
  <line x1="211" y1="0" x2="211" y2="8" style="stroke: #d3d3d3"></line>
  <line x1="212" y1="0" x2="212" y2="8" style="stroke: #d4d4d4"></line>
  <line x1="213" y1="0" x2="213" y2="8" style="stroke: #d5d5d5"></line>
  <line x1="214" y1="0" x2="214" y2="8" style="stroke: #d6d6d6"></line>
  <line x1="215" y1="0" x2="215" y2="8" style="stroke: #d7d7d7"></line>
  <line x1="216" y1="0" x2="216" y2="8" style="stroke: #d8d8d8"></line>
  <line x1="217" y1="0" x2="217" y2="8" style="stroke: #d9d9d9"></line>
  <line x1="218" y1="0" x2="218" y2="8" style="stroke: #dadada"></line>
  <line x1="219" y1="0" x2="219" y2="8" style="stroke: #dbdbdb"></line>
  <line x1="220" y1="0" x2="220" y2="8" style="stroke: #dcdcdc"></line>
  <line x1="221" y1="0" x2="221" y2="8" style="stroke: #ddd"></line>
  <line x1="222" y1="0" x2="222" y2="8" style="stroke: #dedede"></line>
  <line x1="223" y1="0" x2="223" y2="8" style="stroke: #dfdfdf"></line>
  <line x1="224" y1="0" x2="224" y2="8" style="stroke: #e0e0e0"></line>
  <line x1="225" y1="0" x2="225" y2="8" style="stroke: #e1e1e1"></line>
  <line x1="226" y1="0" x2="226" y2="8" style="stroke: #e2e2e2"></line>
  <line x1="227" y1="0" x2="227" y2="8" style="stroke: #e3e3e3"></line>
  <line x1="228" y1="0" x2="228" y2="8" style="stroke: #e4e4e4"></line>
  <line x1="229" y1="0" x2="229" y2="8" style="stroke: #e5e5e5"></line>
  <line x1="230" y1="0" x2="230" y2="8" style="stroke: #e6e6e6"></line>
  <line x1="231" y1="0" x2="231" y2="8" style="stroke: #e7e7e7"></line>
  <line x1="232" y1="0" x2="232" y2="8" style="stroke: #e8e8e8"></line>
  <line x1="233" y1="0" x2="233" y2="8" style="stroke: #e9e9e9"></line>
  <line x1="234" y1="0" x2="234" y2="8" style="stroke: #eaeaea"></line>
  <line x1="235" y1="0" x2="235" y2="8" style="stroke: #ebebeb"></line>
  <line x1="236" y1="0" x2="236" y2="8" style="stroke: #ececec"></line>
  <line x1="237" y1="0" x2="237" y2="8" style="stroke: #ededed"></line>
  <line x1="238" y1="0" x2="238" y2="8" style="stroke: #eee"></line>
  <line x1="239" y1="0" x2="239" y2="8" style="stroke: #efefef"></line>
  <line x1="240" y1="0" x2="240" y2="8" style="stroke: #f0f0f0"></line>
  <line x1="241" y1="0" x2="241" y2="8" style="stroke: #f1f1f1"></line>
  <line x1="242" y1="0" x2="242" y2="8" style="stroke: #f2f2f2"></line>
  <line x1="243" y1="0" x2="243" y2="8" style="stroke: #f3f3f3"></line>
  <line x1="244" y1="0" x2="244" y2="8" style="stroke: #f4f4f4"></line>
  <line x1="245" y1="0" x2="245" y2="8" style="stroke: #f5f5f5"></line>
  <line x1="246" y1="0" x2="246" y2="8" style="stroke: #f6f6f6"></line>
  <line x1="247" y1="0" x2="247" y2="8" style="stroke: #f7f7f7"></line>
  <line x1="248" y1="0" x2="248" y2="8" style="stroke: #f8f8f8"></line>
  <line x1="249" y1="0" x2="249" y2="8" style="stroke: #f9f9f9"></line>
  <line x1="250" y1="0" x2="250" y2="8" style="stroke: #fafafa"></line>
  <line x1="251" y1="0" x2="251" y2="8" style="stroke: #fbfbfb"></line>
  <line x1="252" y1="0" x2="252" y2="8" style="stroke: #fcfcfc"></line>
  <line x1="253" y1="0" x2="253" y2="8" style="stroke: #fdfdfd"></line>
  <line x1="254" y1="0" x2="254" y2="8" style="stroke: #fefefe"></line>
  <line x1="255" y1="0" x2="255" y2="8" style="stroke: #fff"></line>
</svg>